<?xml version="1.0" encoding="utf-8"?>
<!-- Generator: Adobe Illustrator 19.2.1, SVG Export Plug-In . SVG Version: 6.00 Build 0)  -->
<svg version="1.1" id="layer" xmlns="http://www.w3.org/2000/svg" xmlns:xlink="http://www.w3.org/1999/xlink" x="0px" y="0px"
	 viewBox="0 0 652 652" style="enable-background:new 0 0 652 652;" xml:space="preserve">
<style type="text/css">
	.st0{fill:#353535;}
	.st1{fill:#F26F61;}
</style>
<path class="st0" d="M212.8,379.7c-5.7,0-9.5-4.3-9.5-9.5v-72.3c0-5.3,4.1-9.5,9.5-9.5c5.5,0,9.5,4.3,9.5,9.5v72.3
	C222.4,375.4,218.5,379.7,212.8,379.7L212.8,379.7z M212.8,252.2c6.1,0,11.2,5.1,11.2,11.2c0,6.1-5.1,11.2-11.2,11.2
	c-6.1,0-11.2-5.1-11.2-11.2C201.7,257.2,206.8,252.2,212.8,252.2z M281.7,380.5c-12.8,0-24.2-4.1-32.3-10.3
	c-2.8-2.2-4.1-5.3-4.1-7.9c0-4.1,3.3-6.7,7.3-6.7c3.2,0,5.3,1.2,7.5,2.8c5.5,4.1,13.2,7.9,22.9,7.9c11,0,16.9-4.1,16.9-10.4
	c0-6.9-5.7-9.5-19.9-13.4c-25-6.7-34.1-15.2-34.1-29.8c0-15.2,14-25.2,35.9-25.2c8.3,0,17.6,2,25.2,5.7c5.5,2.6,9.3,5.9,9.3,9.9
	c0,3.7-2,7.1-7.3,7.1c-2.6,0-5.3-1.2-8.3-2.9c-5.7-3-12-4.7-19.3-4.7c-10.2,0-17.1,2.6-17.1,9.7c0,6.9,6.1,9.1,20.7,13.4
	c21.9,6.3,33.3,12.2,33.3,28.6c0,15-12.6,26-36.7,26 M373.5,380.5c-12.8,0-24.2-4-32.3-10.3c-2.8-2.2-4.1-5.3-4.1-7.9
	c0-4.1,3.3-6.7,7.3-6.7c3.3,0,5.3,1.2,7.5,2.8c5.5,4.1,13.2,7.9,22.9,7.9c11,0,16.9-4.1,16.9-10.4c0-6.9-5.7-9.5-19.9-13.4
	c-25-6.7-34.1-15.2-34.1-29.8c0-15.2,14-25.2,35.9-25.2c8.3,0,17.7,2,25.2,5.7c5.5,2.6,9.3,5.9,9.3,10c0,3.7-2,7.1-7.3,7.1
	c-2.6,0-5.3-1.2-8.3-2.8c-5.7-3-12-4.7-19.3-4.7c-10.1,0-17,2.6-17,9.7c0,6.9,6.1,9.1,20.7,13.4c21.9,6.3,33.3,12.2,33.3,28.6
	c0,15-12.6,26-36.7,26 M428.7,338.2v-40.2c0-5.3,4.3-9.5,9.5-9.5s9.5,4.3,9.5,9.5v42.4c0,12.8,9.9,22.7,23.3,22.7
	c13.4,0,23.6-10,23.6-22.8v-42.5c0-5.3,4.3-9.5,9.5-9.5s9.5,4.3,9.5,9.5V338c0,23.8-18,42.4-42.6,42.4c-24.5,0-42.4-18.7-42.4-42.4
	 M534.9,338v-40.2c0-5.3,4.3-9.5,9.5-9.5c5.3,0,9.5,4.3,9.5,9.5v42.4c0,12.8,10,22.8,23.3,22.8c13.4,0,23.6-10,23.6-22.8v-42.4
	c0-5.3,4.3-9.5,9.5-9.5c5.3,0,9.5,4.3,9.5,9.5V338c0,23.7-18,42.4-42.6,42.4C552.8,380.4,535,361.8,534.9,338"/>
<g>
	<path class="st1" d="M89.8,338.9c-9.9-0.1-17.8-8.2-17.7-18.1c0.1-9.9,8.2-17.8,18.1-17.7c9.9,0.1,17.8,8.2,17.7,18.1
		C107.8,331.1,99.7,339,89.8,338.9L89.8,338.9z M90.3,285.7c-19.5-0.2-35.5,15.5-35.7,35c-0.2,19.5,15.5,35.5,35,35.7
		c19.5,0.2,35.5-15.5,35.6-35C125.5,301.8,109.8,285.9,90.3,285.7L90.3,285.7z"/>
	<path class="st1" d="M41.7,320.3c0.3-26.6,22.1-48,48.7-47.8c26.6,0.3,48,22.1,47.8,48.7c-0.3,26.6-22.1,48-48.7,47.8
		C62.9,368.7,41.5,346.9,41.7,320.3L41.7,320.3z M89.5,251.8H25.8c-3.2,0-5.8,2.6-5.8,5.8v63.7c0,38.4,31.1,69.5,69.5,69.5
		c38.4,0,69.5-31.1,69.5-69.5S127.9,251.8,89.5,251.8L89.5,251.8z"/>
</g>
</svg>
